# xmcd
#
# Track frame offsets: 
#        150
#        18202
#        39656
#        67522
#        85910
#        103391
#        118516
#        135338
#        143620
#        164919
#        186260
#        206233
#        223757
#        246820
#        256124
#        271477
#
# Disc length: 3914 seconds
#
# Revision: 0
# Processed by: cddbd v1.5PL3 Copyright (c) Steve Scherf et al.
# Submitted via: ExactAudioCopy v0.95a5
#
DISCID=e80f4810
DTITLE=Rob Tognoni Band - Live at the twilight
DYEAR=1999
DGENRE=Blues Rock
TTITLE0=Everlasting Lovin' Boy
TTITLE1=Dark Angel
TTITLE2=Crossword Blues
TTITLE3=Jim Beam Blues
TTITLE4=Sunburn
TTITLE5=Keep Your Head Above Water
TTITLE6=Lil' Melody
TTITLE7=Peregian
TTITLE8=Roosevelt  Ira Lee
TTITLE9=I Like To Dress Like Batman
TTITLE10=Dont't Be Too Hard On Me
TTITLE11=The Sinner
TTITLE12=Itty Bitty Mama
TTITLE13=Bad Girl
TTITLE14=Black is White
TTITLE15=My Acid Is Kick'n In
EXTD=
EXTT0=
EXTT1=
EXTT2=
EXTT3=
EXTT4=
EXTT5=
EXTT6=
EXTT7=
EXTT8=
EXTT9=
EXTT10=
EXTT11=
EXTT12=
EXTT13=
EXTT14=
EXTT15=
PLAYORDER=
